<svg id="Layer_1" data-name="Layer 1" xmlns="http://www.w3.org/2000/svg" viewBox="0 0 506.21 600.45"><path d="M411.19,50.55c-69.58,33.88-5.83,159.9-48.87,209.71-20.71,24-57.93,37.85-96.61,21.25-83.22-35.71-21.15-143.51-51-203.59-13.19-26.56-52.81-48-88.37-26C90.1,74.36,94.7,102.8,94.71,150.13c0,97.88-2.32,141.83,54,201.42C182.6,387.42,262.5,432,337.42,413.15c73.73-18.59,117.5-50.8,147.6-108.61,29.35-56.37,27.1-203.42,13.39-228.15C484.23,50.8,449,32.16,411.19,50.55Z" transform="translate(-46.89 0.45)" style="fill:#fed123"/><path d="M411.19,50.55c-69.58,33.88-5.83,159.9-48.87,209.71-20.71,24-57.93,37.85-96.61,21.25-83.22-35.71-21.15-143.51-51-203.59-13.19-26.56-52.81-48-88.37-26C90.1,74.36,94.7,102.8,94.71,150.13c0,97.88-2.32,141.83,54,201.42C182.6,387.42,262.5,432,337.42,413.15c73.73-18.59,117.5-50.8,147.6-108.61,29.35-56.37,27.1-203.42,13.39-228.15C484.23,50.8,449,32.16,411.19,50.55Z" transform="translate(-46.89 0.45)" style="fill:none"/><path d="M551.19,228.48c0-54.23,8.95-127.1-11.84-169.56C520.49,20.44,475-9.47,417.81,2c-98.62,19.86-85.14,122.54-84.72,187.3.22,33.6,1.79,58.27-37.71,54.9-49.46-4.22-17.92-77.41-28.63-152C251.19-16.24,101.71-33.42,58.49,62.24c-17.57,38.91-10,122-10,170.16q0,90.09,0,180.2c0,67.48-8.93,107.83,28.28,151.86,45,53.22,190.81,64.87,190.32-101.9l65.58-.83c-.34,65.67,12.76,97.84,55.82,124,49.83,30.27,109.6,7.4,136.06-22.11,34.87-38.89,26.59-91.45,26.59-154.92ZM220.45,502.31c-2.65,17.87-8.07,25.5-19,35.88-28.37,26.92-108.59,37.24-108.5-70.7,0-35-1.24-73.28.58-107.91,3.53,2.07,21.15,20.37,25.89,25.15,13,13.1,13.42,14.89,28.91,26,22.71,16.32,45.3,22.46,71.47,37.1A183.25,183.25,0,0,1,220.45,502.31ZM496,527.12a64.83,64.83,0,0,1-55.8,28.55c-57.51-2.13-67.16-55.12-60.69-107.81,28.81-14.78,32.6-10.37,71.18-36.43,19-12.85,42.41-35.38,55.07-51.8l.57,92.15C506.32,479.23,509.69,506.23,496,527.12ZM485,304.54c-30.1,57.81-73.87,90-147.6,108.61C262.5,432,182.6,387.42,148.71,351.55,92.39,292,94.74,248,94.71,150.13c0-47.33-4.61-75.77,31.67-98.2,35.56-22,75.18-.57,88.37,26,29.81,60.08-32.26,167.88,51,203.59,38.68,16.6,75.9,2.72,96.61-21.25,43-49.81-20.71-175.83,48.87-209.71,37.77-18.39,73,.25,87.22,25.84C512.12,101.12,514.37,248.17,485,304.54Z" transform="translate(-46.89 0.45)" style="fill:#302f5c"/><path d="M148.32,410.76c-15.49-11.14-15.92-12.93-28.91-26-4.74-4.78-22.36-23.08-25.89-25.15-1.82,34.63-.55,72.92-.58,107.91-.09,107.94,80.13,97.62,108.5,70.7,10.94-10.38,16.36-18,19-35.88a183.25,183.25,0,0,0-.66-54.45C193.62,433.22,171,427.08,148.32,410.76Z" transform="translate(-46.89 0.45)" style="fill:#fed123"/><path d="M505.75,359.63c-12.66,16.42-36.06,38.95-55.07,51.8-38.58,26.06-42.37,21.65-71.18,36.43-6.47,52.69,3.18,105.68,60.69,107.81A64.83,64.83,0,0,0,496,527.12c13.7-20.89,10.33-47.89,10.33-75.34Z" transform="translate(-46.89 0.45)" style="fill:#fed123"/></svg>